<svg xmlns="http://www.w3.org/2000/svg" xmlns:svg="http://www.w3.org/2000/svg" id="svg1" width="36" height="36" version="1.1" viewBox="0 0 9.525 9.525" xml:space="preserve"><g id="layer1"><path style="fill:#003539;fill-opacity:1;stroke-width:.999997" id="path1" d="M 1.0986781,8.1974882 C 0.54774654,8.0500862 0.34532034,7.3577242 0.73195984,6.9431968 0.83832854,6.8291557 0.91819084,6.7771444 1.0605939,6.7291729 c 0.1083458,-0.036494 0.1350709,-0.036764 3.6978223,-0.036764 3.2454643,0 3.5980623,0.00279 3.6867113,0.029041 0.13758,0.040752 0.232111,0.1004526 0.340403,0.214955 0.284319,0.3006243 0.277144,0.7634443 -0.01639,1.0576623 -0.113568,0.11383 -0.203466,0.165754 -0.355557,0.205369 -0.15502,0.04038 -7.1636801,0.03852 -7.3149008,-0.0019 z M 1.1761591,5.5191545 C 0.94192974,5.4849305 0.71020664,5.3120291 0.60914944,5.0960747 0.38659954,4.6204965 0.67641344,4.0771238 1.1924145,4.0025093 c 0.1506479,-0.021784 6.989046,-0.021784 7.139693,0 0.516001,0.074614 0.805816,0.6179872 0.583264,1.0935654 -0.104357,0.2230088 -0.33072,0.3876116 -0.583264,0.4241297 -0.137375,0.019864 -7.0197165,0.018854 -7.1559484,-0.00105 z M 1.05498,2.7923465 C 0.69912454,2.6699688 0.48192544,2.3136321 0.54033264,1.9480178 0.57609234,1.7241724 0.71014034,1.5250864 0.90268914,1.4098524 1.1051975,1.2886578 0.84569724,1.296293 4.7622611,1.296293 c 3.8332214,0 3.6399934,-0.00466 3.8302544,0.092403 0.108827,0.055519 0.270334,0.2254193 0.325532,0.3424492 0.136572,0.2895572 0.08448,0.6257234 -0.132517,0.8551656 -0.108291,0.114501 -0.202823,0.1741955 -0.340403,0.2149549 -0.08868,0.026273 -0.440441,0.028982 -3.6906533,0.028435 C 1.1882873,2.8291013 1.1610566,2.8288222 1.05498,2.7923465 Z"/></g></svg>