<svg width="153" height="32" fill="none" xmlns="http://www.w3.org/2000/svg"><path d="M63.705 10.407h-5.471v14.407h-2.62V10.407h-5.493V8.072h13.584v2.335ZM75.645 12.011c-.14-.172-.36-.357-.66-.555a6.62 6.62 0 0 0-1.044-.541 8.717 8.717 0 0 0-1.298-.424 5.934 5.934 0 0 0-1.448-.176c-1.082 0-1.885.204-2.41.61-.526.407-.788.97-.788 1.69 0 .531.146.955.44 1.267.293.314.746.568 1.357.763.61.196 1.363.402 2.26.622 1.128.266 2.096.587 2.908.963.812.376 1.438.869 1.877 1.477.44.61.662 1.424.662 2.44 0 .83-.158 1.549-.476 2.16a4.023 4.023 0 0 1-1.31 1.49 6.013 6.013 0 0 1-1.924.855 9.37 9.37 0 0 1-2.342.282c-.835 0-1.634-.09-2.446-.27-.812-.181-1.583-.442-2.319-.78a10.582 10.582 0 0 1-2.05-1.238l1.205-2.264c.186.204.471.428.858.673a10.345 10.345 0 0 0 2.98 1.252c.594.15 1.201.223 1.82.223 1.036 0 1.827-.183 2.377-.548.547-.366.822-.899.822-1.602 0-.548-.182-.99-.546-1.327-.363-.335-.881-.621-1.553-.858a28.662 28.662 0 0 0-2.423-.705c-1.082-.282-1.985-.602-2.712-.963-.727-.36-1.268-.815-1.623-1.361-.355-.549-.533-1.26-.533-2.138 0-1.096.258-2.023.776-2.782.518-.76 1.232-1.331 2.143-1.714.911-.383 1.924-.576 3.038-.576.742 0 1.448.082 2.12.247.672.166 1.298.39 1.877.673.58.284 1.093.606 1.541.968l-1.158 2.17.002-.003ZM91.362 22.48v2.336H80.074V8.072h11.081v2.335h-8.462v4.786h7.348v2.17h-7.348v5.118h8.67ZM96.67 12.976v11.838h-2.62V8.072h2.134l9.318 12.097V8.095h2.596v16.719h-2.249l-9.181-11.838h.002ZM123.908 10.407h-5.471v14.407h-2.619V10.407h-5.494V8.072h13.584v2.335ZM137.399 22.48v2.336H126.11V8.072h11.081v2.335h-8.462v4.786h7.348v2.17h-7.348v5.118h8.67ZM140.088 24.814V8.072h7.164c.742 0 1.423.157 2.04.47a5.388 5.388 0 0 1 1.611 1.25 5.862 5.862 0 0 1 1.065 1.757c.256.651.383 1.31.383 1.97 0 .754-.131 1.466-.394 2.132a5.023 5.023 0 0 1-1.124 1.733 4.33 4.33 0 0 1-1.704 1.06L153 24.812h-2.922l-3.57-5.825h-3.801v5.825h-2.619v.003Zm2.619-8.158h4.519c.48 0 .905-.147 1.275-.437.37-.29.664-.673.882-1.144a3.71 3.71 0 0 0 .325-1.557c0-.565-.127-1.107-.382-1.58a3.244 3.244 0 0 0-.962-1.12 2.152 2.152 0 0 0-1.275-.413h-4.382v6.251Z" fill="#fff"/><path d="M28.765 32c8.688 0 15.73-7.163 15.73-16S37.453 0 28.765 0c-8.687 0-15.73 7.163-15.73 16s7.043 16 15.73 16Z" fill="#D5EA3B"/><g fill="#fff"><path d="M15.442 18.967c-1.609 0-2.918-1.33-2.918-2.967 0-1.636 1.31-2.967 2.918-2.967s2.917 1.33 2.917 2.967c0 1.636-1.309 2.967-2.917 2.967Zm0-4.205A1.23 1.23 0 0 0 14.224 16c0 .684.546 1.239 1.218 1.239.672 0 1.217-.555 1.217-1.239s-.545-1.239-1.217-1.239Z"/><path d="M15.443 22.152c-3.336 0-6.048-2.76-6.048-6.152 0-3.39 2.714-6.152 6.048-6.152 3.333 0 6.048 2.761 6.048 6.152s-2.715 6.152-6.048 6.152Zm0-10.575c-2.4 0-4.349 1.985-4.349 4.423 0 2.439 1.951 4.423 4.349 4.423 2.397 0 4.348-1.984 4.348-4.423 0-2.438-1.951-4.423-4.348-4.423Z"/><path d="M15.443 25.337c-5.061 0-9.181-4.19-9.181-9.337 0-5.148 4.118-9.338 9.18-9.338 5.064 0 9.18 4.188 9.18 9.338 0 5.15-4.119 9.337-9.18 9.337Zm0-16.944c-4.125 0-7.482 3.412-7.482 7.61 0 4.197 3.355 7.607 7.482 7.607 4.126 0 7.479-3.413 7.479-7.608s-3.355-7.61-7.48-7.61Z"/><path d="M15.442 28.523C8.655 28.523 3.131 22.904 3.131 16S8.655 3.477 15.442 3.477c6.788 0 12.312 5.619 12.312 12.523s-5.522 12.523-12.312 12.523Zm0-23.317C9.591 5.206 4.83 10.048 4.83 16c0 5.952 4.761 10.794 10.612 10.794 5.852 0 10.612-4.842 10.612-10.794 0-5.952-4.76-10.794-10.612-10.794Z"/><path d="M15.442 31.708C6.927 31.708 0 24.66 0 16 0 7.339 6.927.292 15.442.292S30.884 7.34 30.884 16c0 8.661-6.927 15.708-15.442 15.708Zm0-29.687C7.864 2.021 1.7 8.291 1.7 16s6.164 13.979 13.742 13.979c7.579 0 13.743-6.27 13.743-13.979S23.02 2.021 15.442 2.021Z"/></g></svg>